<svg width="35" height="35" viewBox="0 0 35 35" fill="none" xmlns="http://www.w3.org/2000/svg">
<path opacity="0.6" d="M18.9584 3.525H16.0417L15.9806 3.525C14.6577 3.52497 13.5791 3.52495 12.7281 3.63936C11.8396 3.75882 11.073 4.01684 10.4616 4.62823C9.85022 5.23962 9.59219 6.00619 9.47274 6.8947C9.35832 7.74569 9.35835 8.82428 9.35837 10.1473L9.35837 10.2083V24.7917L9.35837 24.8527C9.35835 26.1757 9.35832 27.2543 9.47274 28.1053C9.59219 28.9938 9.85022 29.7604 10.4616 30.3718C11.073 30.9832 11.8396 31.2412 12.7281 31.3606C13.5791 31.475 14.6576 31.475 15.9806 31.475H16.0417H18.9584H19.0195C20.3424 31.475 21.421 31.475 22.272 31.3606C23.1605 31.2412 23.9271 30.9832 24.5385 30.3718C25.1499 29.7604 25.4079 28.9938 25.5273 28.1053C25.6418 27.2543 25.6417 26.1757 25.6417 24.8528V24.7917V10.2083V10.1473C25.6417 8.82427 25.6418 7.74569 25.5273 6.8947C25.4079 6.00619 25.1499 5.23962 24.5385 4.62823C23.9271 4.01684 23.1605 3.75882 22.272 3.63936C21.421 3.52495 20.3424 3.52497 19.0195 3.525L18.9584 3.525Z" stroke="#0D1721" stroke-width="1.7"/>
<path opacity="0.6" d="M10.2084 23.3334H24.7917" stroke="#0D1721" stroke-width="1.7"/>
</svg>
